
        <svg xmlns="http://www.w3.org/2000/svg" xmlns:xlink="http://www.w3.org/1999/xlink" version="1.1" width="3153.649167733675" height="2423.047375160051" viewBox="0 0 3153.649167733675 2423.047375160051">
			
			<g transform="scale(7.682458386683739) translate(10, 10)">
				<defs id="SvgjsDefs1080"/><g id="SvgjsG1081" featureKey="symbolContainer" transform="matrix(0.85,0,0,0.85,26.75,20)" fill="#000"><path xmlns="http://www.w3.org/2000/svg" fill-rule="evenodd" d="M5,65 L44,0 L83, 65 L44, 10 z M5,244 L44,324 L83,239 L44, 314 z"/></g><g id="SvgjsG1082" featureKey="monogramFeature-0" transform="matrix(3.318768434457485,0,0,3.318768434457485,14.922947462804455,31.137704416254145)" fill="#000"><path d="M22.067 51.4026 c0 0.8436 -0.32033 1.4022 -1.0511 1.8187 l-11.077 6.4086 c-0.36539 0.21117 -0.7092 0.31676 -1.0531 0.31676 s-0.68766 -0.10559 -1.0531 -0.31676 l-5.2511 -3.0354 c-0.7302 -0.4224 -1.0518 -0.9798 -1.0518 -1.8234 l0 -33.01 c0 -0.8436 0.32162 -1.401 1.0518 -1.8234 l5.5158 -3.1884 c0.23039 -0.13858 0.49981 -0.21838 0.7878 -0.21838 c0.8448 0 1.53 0.6852 1.53 1.53 c0 0.57598 -0.31858 1.0776 -0.78894 1.3386 l-5.037 2.9112 l0 31.909 l4.296 2.4834 l10.121 -5.8506 l0 -4.9692 l-2.766 -1.599 l0 4.0836 c0 0.8448 -0.6852 1.53 -1.53 1.53 s-1.5288 -0.6852 -1.5288 -1.53 l-0.0077928 -6.7338 c0 -0.52617 0.27182 -1.038 0.7578 -1.3224 c0.24902 -0.14402 0.51422 -0.20941 0.7716 -0.20941 c0.27358 0 0.53818 0.07383 0.7656 0.20525 l5.5458 3.2016 c0.7302 0.4224 1.0518 0.9798 1.0518 1.8234 l0 6.0702 z M7.3572 25.128999999999998 c0 -0.8436 0.32092 -1.4021 1.0511 -1.8245 l11.077 -6.4026 c0.36539 -0.21117 0.7092 -0.31676 1.0531 -0.31676 s0.68766 0.10559 1.0531 0.31676 l5.2511 3.0354 c0.7308 0.4224 1.0524 0.9798 1.0524 1.8234 l0 12.805 c0 0.8436 -0.32162 1.401 -1.0518 1.8234 l-5.5158 3.1884 c-0.23039 0.13858 -0.49981 0.21838 -0.7878 0.21838 c-0.8448 0 -1.53 -0.6852 -1.53 -1.53 c0 -0.57598 0.31858 -1.0776 0.78894 -1.3386 l5.037 -2.9112 l0 -11.704 l-4.296 -2.4834 l-10.122 5.8506 l0 26.057 c0 0.8448 -0.6852 1.53 -1.53 1.53 s-1.53 -0.6852 -1.53 -1.53 l0 -26.608 z M13.972 33.559 l5.0365 -2.9123 l0 -3.2004 l-3.5082 2.028 c-0.22981 0.13858 -0.49922 0.21838 -0.7872 0.21838 c-0.8448 0 -1.53 -0.6852 -1.53 -1.53 c0 -0.57598 0.32338 -1.0691 0.78894 -1.3391 l5.7948 -3.354 c0.24117 -0.13922 0.50396 -0.20519 0.76374 -0.20519 c0.52858 0 1.0428 0.27422 1.326 0.765 c0.13922 0.24117 0.20519 0.50396 0.20519 0.76374 l0.0072072 6.4044 c0.00058594 0.8436 -0.32221 1.401 -1.053 1.8234 l-5.5158 3.1884 c-0.22981 0.13858 -0.49922 0.21838 -0.7872 0.21838 c-0.8448 0 -1.53 -0.6852 -1.53 -1.53 c0 -0.57598 0.31858 -1.0776 0.78894 -1.3386 z M26.364 40.102000000000004 c0.8448 0 1.53 0.6846 1.53 1.5294 l0 13.138 c0 0.8436 -0.32162 1.401 -1.0524 1.8234 l-5.5158 3.1884 c-0.23039 0.13858 -0.49981 0.21838 -0.7878 0.21838 c-0.8448 0 -1.53 -0.6852 -1.53 -1.53 c0 -0.57598 0.31858 -1.0776 0.78894 -1.3386 l5.037 -2.9112 l0 -12.587 c0 -0.8448 0.6852 -1.53 1.53 -1.53 z"/></g><g id="SvgjsG1083" featureKey="nameFeature-0" transform="matrix(1.7969605470267456,0,0,1.7969605470267456,124.40608061966164,91.34310087082581)" fill="#000"><path d="M2 40 l0 -32 l6.08 0 c4.12 0 5.48 2.56 5.48 7.16 l0 0.84 c0 2.76 -0.64 4.92 -1.36 6.48 l0 0.16 c1.48 1.24 2.4 3.68 2.6 7.92 l0 1.28 c-0.32 5.64 -1.8 8.16 -5.92 8.16 l-6.88 0 z M6 21.6 l2.08 0 c1.12 0 1.92 -1.32 1.92 -5.6 l0 -0.84 c0 -3.08 -0.72 -3.96 -1.92 -3.96 l-2.08 0 l0 10.4 z M6 36 l2.88 0 c1.2 0 2.04 -1 2.2 -4.16 l0 -1.28 c-0.16 -4.76 -1 -5.76 -2.2 -5.76 l-2.88 0 l0 11.2 z M19.200000000000003 23.16 c0 -11.16 0.24 -15.56 6.24 -15.56 s6.24 4.4 6.24 15.56 c0 12.8 -0.24 17.24 -6.24 17.24 s-6.24 -4.44 -6.24 -17.24 z M23.200000000000003 23.16 c0 11.56 0 13.24 2.24 13.24 s2.24 -1.68 2.24 -13.24 c0 -10.4 0 -12.36 -2.24 -12.36 s-2.24 1.96 -2.24 12.36 z M37.28 40 l0 -32 l3.6 0 l4.2 20 l0.4 0 l4.2 -20 l3.6 0 l0 32 l-4 0 l0 -16 l-2.84 16 l-2.4 0 l-2.76 -16 l0 16 l-4 0 z M59.28 40 l0 -32 l6.08 0 c4.12 0 5.48 2.56 5.48 7.16 l0 0.84 c0 2.76 -0.64 4.92 -1.36 6.48 l0 0.16 c1.48 1.24 2.4 3.68 2.6 7.92 l0 1.28 c-0.32 5.64 -1.8 8.16 -5.92 8.16 l-6.88 0 z M63.28 21.6 l2.08 0 c1.12 0 1.92 -1.32 1.92 -5.6 l0 -0.84 c0 -3.08 -0.72 -3.96 -1.92 -3.96 l-2.08 0 l0 10.4 z M63.28 36 l2.88 0 c1.2 0 2.04 -1 2.2 -4.16 l0 -1.28 c-0.16 -4.76 -1 -5.76 -2.2 -5.76 l-2.88 0 l0 11.2 z M76.88 40 l0 -16.8 c0 -11.16 0 -15.56 6 -15.56 s6 4.4 6 15.56 l0 16.8 l-4 0 l0 -9.2 l-4 0 l0 9.2 l-4 0 z M80.88 27.6 l4 0 l0 -4.4 c0 -10.4 0 -12.36 -2 -12.36 s-2 1.96 -2 12.36 l0 4.4 z M94.08 30.240000000000002 l4.04 0 c0.08 5.16 0.48 6.16 1.92 6.16 c1.96 0 1.96 -1.64 1.96 -6 c0 -6.4 -7.92 -4.68 -7.92 -13.2 c0 -5 0 -9.6 6 -9.6 c4.44 0 5.64 2.52 5.92 8.56 l-4 0 c-0.16 -4.36 -0.64 -5.36 -1.92 -5.36 c-1.96 0 -1.96 2.16 -1.96 6.4 c0 6.2 7.96 4 7.96 13.2 c0 5.6 0 10 -6.04 10 c-4.64 0 -5.72 -2.76 -5.96 -10.16 z M109.68 11.600000000000001 l0 -3.6 l12 0 l0 3.6 l-4 0 l0 28.4 l-4 0 l0 -28.4 l-4 0 z M126.08 40 l0 -32 l4 0 l0 32 l-4 0 z M136.07999999999998 40 l0 -32 l4 0 l0 12.68 l4 -12.68 l4 0 l-4.8 15.2 l4.8 16.8 l-4 0 l-4 -14 l0 14 l-4 0 z"/></g><g id="SvgjsG1084" featureKey="sloganFeature-0" transform="matrix(0.8428966519943442,0,0,0.8428966519943442,139.00000030144332,178.90354024536862)" fill="#000"><path d="M9.24 20 l-1.4 0 l-1.06 -4.3 l-4.36 0 l-1.06 4.3 l-1.36 0 l4.06 -15 l1.14 0 z M6.44 14.36 l-1.78 -7.42 l-1.9 7.42 l3.68 0 z M23.7405 20 l-1.34 0 l0 -11.58 l-3.14 7.62 l-1.36 -0.02 l-3.06 -7.6 l0 11.58 l-1.34 0 l0 -15 l1.34 0 l3.76 9.18 l3.8 -9.18 l1.34 0 l0 15 z M37.42100000000001 20 l-1.4 0 l-1.06 -4.3 l-4.36 0 l-1.06 4.3 l-1.36 0 l4.06 -15 l1.14 0 z M34.621 14.36 l-1.78 -7.42 l-1.9 7.42 l3.68 0 z M47.401500000000006 6.460000000000001 l-3.1 0 l0 13.54 l-1.48 0 l0 -13.54 l-3.1 0 l0 -1.46 l7.68 0 l0 1.46 z M59.362 20 l-7.5 0 l0 -15 l7.36 0 l0 1.52 l-5.98 0 l0 5.16 l5.94 0 l0 1.3 l-5.94 0 l0 5.5 l6.12 0 l0 1.52 z M71.4825 16.12 c0 1.3333 -0.32336 2.3434 -0.97002 3.03 s-1.6433 1.03 -2.99 1.03 c-1.28 0 -2.2434 -0.36666 -2.89 -1.1 s-0.97 -1.72 -0.97 -2.96 l0 -11.12 l1.42 0 l0 11.06 c0 0.37334 0.05 0.72334 0.15 1.05 s0.25 0.61332 0.45 0.85998 s0.45 0.44 0.75 0.58 s0.65 0.21 1.05 0.21 c0.97334 0 1.65 -0.27 2.03 -0.81 s0.57 -1.2633 0.57 -2.17 l0 -10.78 l1.4 0 l0 11.12 z M85.503 20 l-1.72 -0.000019531 l-3.14 -6.06 l-2.6 0 l0 6.06 l-1.34 0 l0 -15 l3.44 0 c1.3733 0 2.46 0.39334 3.26 1.18 s1.2 1.8667 1.2 3.24 c0 0.42666 -0.05666 0.86 -0.17 1.3 s-0.27668 0.85334 -0.49002 1.24 s-0.47668 0.73666 -0.79002 1.05 s-0.67 0.55668 -1.07 0.73002 z M83.183 9.32 c0 -0.46666 -0.08 -0.88664 -0.24 -1.26 s-0.38 -0.69 -0.66 -0.95 s-0.61334 -0.46 -1 -0.6 s-0.80666 -0.21 -1.26 -0.21 l-1.98 0 l0 6.26 l2.1 0 c1.0667 0 1.84 -0.28666 2.32 -0.86 s0.72 -1.3667 0.72 -2.38 z M105.36399999999999 20 l-1.72 -0.000019531 l-3.14 -6.06 l-2.6 0 l0 6.06 l-1.34 0 l0 -15 l3.44 0 c1.3733 0 2.46 0.39334 3.26 1.18 s1.2 1.8667 1.2 3.24 c0 0.42666 -0.05666 0.86 -0.17 1.3 s-0.27668 0.85334 -0.49002 1.24 s-0.47668 0.73666 -0.79002 1.05 s-0.67 0.55668 -1.07 0.73002 z M103.044 9.32 c0 -0.46666 -0.08 -0.88664 -0.24 -1.26 s-0.38 -0.69 -0.66 -0.95 s-0.61334 -0.46 -1 -0.6 s-0.80666 -0.21 -1.26 -0.21 l-1.98 0 l0 6.26 l2.1 0 c1.0667 0 1.84 -0.28666 2.32 -0.86 s0.72 -1.3667 0.72 -2.38 z M118.62449999999998 20 l-1.4 0 l-1.06 -4.3 l-4.36 0 l-1.06 4.3 l-1.36 0 l4.06 -15 l1.14 0 z M115.82449999999999 14.36 l-1.78 -7.42 l-1.9 7.42 l3.68 0 z M130.48499999999999 12.18 c0 0.49334 0.0033984 1.03 0.010059 1.61 s-0.01668 1.16 -0.07002 1.74 s-0.15 1.14 -0.29 1.68 s-0.35666 1.0167 -0.65 1.43 s-0.67668 0.74334 -1.15 0.99 s-1.0633 0.37 -1.77 0.37 l-3.64 0 l0 -15 l3.5 0 c0.73334 0 1.34 0.10334 1.82 0.31 s0.87334 0.48666 1.18 0.84 s0.53332 0.76668 0.67998 1.24 s0.24666 0.97668 0.3 1.51 s0.08 1.08 0.08 1.64 l0 1.64 z M129.125 12.32 l0.000019531 -0.85996 c0 -0.37334 -0.01 -0.76 -0.03 -1.16 s-0.04666 -0.78 -0.08 -1.14 s-0.07668 -0.62666 -0.13002 -0.8 c-0.22666 -0.66666 -0.54 -1.16 -0.94 -1.48 s-0.96 -0.48 -1.68 -0.48 l-2 0 l0 12.16 l2.26 0 c0.29334 0 0.56 -0.05334 0.8 -0.16 s0.46 -0.25 0.66 -0.43 s0.37 -0.38666 0.51 -0.62 s0.25666 -0.47668 0.35 -0.73002 c0.06666 -0.17334 0.11666 -0.45668 0.15 -0.85002 s0.06 -0.81 0.08 -1.25 s0.03334 -0.86334 0.04 -1.27 s0.01 -0.71666 0.01 -0.93 z M136.8055 20 l-1.5 0 l0 -15 l1.5 0 l0 15 z M149.706 16.12 c0 1.4133 -0.31666 2.4434 -0.95 3.09 s-1.6633 0.97 -3.09 0.97 c-1.3067 0 -2.2634 -0.36 -2.87 -1.08 s-0.91 -1.7133 -0.91 -2.98 l0 -7.2 c0 -1.3733 0.32334 -2.3934 0.97 -3.06 s1.6633 -1 3.05 -1 c1.32 0 2.2834 0.35 2.89 1.05 s0.91 1.69 0.91 2.97 l0 7.24 z M148.30599999999998 16.08 l-0.000019531 -7.22 c0 -0.76 -0.2 -1.3933 -0.6 -1.9 s-1.0067 -0.76 -1.82 -0.76 c-0.97334 0 -1.65 0.25334 -2.03 0.76 s-0.57 1.22 -0.57 2.14 l0 6.9 c0 0.38666 0.04334 0.75 0.13 1.09 s0.22666 0.63666 0.42 0.89 s0.44 0.45334 0.74 0.6 s0.66334 0.22 1.09 0.22 c0.93334 0 1.6067 -0.22666 2.02 -0.68 s0.62 -1.1333 0.62 -2.04 z M170.907 20 l-1.4 0 l-1.06 -4.3 l-4.36 0 l-1.06 4.3 l-1.36 0 l4.06 -15 l1.14 0 z M168.107 14.36 l-1.78 -7.42 l-1.9 7.42 l3.68 0 z M181.9275 14.8 c-0.01334 0.74666 -0.040038 1.4466 -0.080038 2.1 s-0.17666 1.2233 -0.41 1.71 s-0.60334 0.87 -1.11 1.15 s-1.2267 0.42 -2.16 0.42 c-0.65334 0 -1.2067 -0.09666 -1.66 -0.29 s-0.82 -0.46668 -1.1 -0.82002 s-0.48334 -0.78 -0.61 -1.28 s-0.19 -1.0567 -0.19 -1.67 l0 -7.2 c0 -0.65334 0.06666 -1.2333 0.2 -1.74 s0.35 -0.93332 0.65 -1.28 s0.69 -0.60666 1.17 -0.78 s1.0667 -0.26 1.76 -0.26 c0.84 0 1.4933 0.14334 1.96 0.43 s0.81666 0.67 1.05 1.15 s0.37668 1.03 0.43002 1.65 s0.08668 1.2633 0.10002 1.93 l-1.32 0 c0 -0.44 -0.0033398 -0.89334 -0.01 -1.36 s-0.07332 -0.89 -0.19998 -1.27 s-0.34666 -0.69334 -0.66 -0.94 s-0.77668 -0.37 -1.39 -0.37 c-0.46666 0 -0.85666 0.06666 -1.17 0.2 s-0.56 0.32668 -0.74 0.58002 s-0.30666 0.55334 -0.38 0.9 s-0.11 0.73332 -0.11 1.16 l0.04 7.3 c0 0.4 0.03 0.76334 0.09 1.09 s0.17 0.60666 0.33 0.84 s0.38334 0.41334 0.67 0.54 s0.65 0.19 1.09 0.19 c0.68 0 1.1867 -0.11666 1.52 -0.35 s0.56668 -0.54334 0.70002 -0.93 s0.20334 -0.82332 0.21 -1.31 s0.01 -0.98332 0.01 -1.49 l1.32 0 z M193.788 14.8 c-0.01334 0.74666 -0.040038 1.4466 -0.080038 2.1 s-0.17666 1.2233 -0.41 1.71 s-0.60334 0.87 -1.11 1.15 s-1.2267 0.42 -2.16 0.42 c-0.65334 0 -1.2067 -0.09666 -1.66 -0.29 s-0.82 -0.46668 -1.1 -0.82002 s-0.48334 -0.78 -0.61 -1.28 s-0.19 -1.0567 -0.19 -1.67 l0 -7.2 c0 -0.65334 0.06666 -1.2333 0.2 -1.74 s0.35 -0.93332 0.65 -1.28 s0.69 -0.60666 1.17 -0.78 s1.0667 -0.26 1.76 -0.26 c0.84 0 1.4933 0.14334 1.96 0.43 s0.81666 0.67 1.05 1.15 s0.37668 1.03 0.43002 1.65 s0.08668 1.2633 0.10002 1.93 l-1.32 0 c0 -0.44 -0.0033398 -0.89334 -0.01 -1.36 s-0.07332 -0.89 -0.19998 -1.27 s-0.34666 -0.69334 -0.66 -0.94 s-0.77668 -0.37 -1.39 -0.37 c-0.46666 0 -0.85666 0.06666 -1.17 0.2 s-0.56 0.32668 -0.74 0.58002 s-0.30666 0.55334 -0.38 0.9 s-0.11 0.73332 -0.11 1.16 l0.04 7.3 c0 0.4 0.03 0.76334 0.09 1.09 s0.17 0.60666 0.33 0.84 s0.38334 0.41334 0.67 0.54 s0.65 0.19 1.09 0.19 c0.68 0 1.1867 -0.11666 1.52 -0.35 s0.56668 -0.54334 0.70002 -0.93 s0.20334 -0.82332 0.21 -1.31 s0.01 -0.98332 0.01 -1.49 l1.32 0 z M206.1085 20 l-7.5 0 l0 -15 l7.36 0 l0 1.52 l-5.98 0 l0 5.16 l5.94 0 l0 1.3 l-5.94 0 l0 5.5 l6.12 0 l0 1.52 z M217.789 16.12 c0 1.2267 -0.3199 2.21 -0.9599 2.95 s-1.5933 1.11 -2.86 1.11 c-0.74666 0 -1.3767 -0.10666 -1.89 -0.32 s-0.93 -0.52 -1.25 -0.92 s-0.55 -0.88 -0.69 -1.44 s-0.20334 -1.1867 -0.19 -1.88 l0.02 -0.52 l1.54 0 c0 0.42666 0.01334 0.86332 0.04 1.31 s0.11332 0.85332 0.25998 1.22 s0.37332 0.66666 0.67998 0.9 s0.74666 0.35 1.32 0.35 c0.88 0 1.5267 -0.23334 1.94 -0.7 s0.62 -1.12 0.62 -1.96 c0 -0.66666 -0.16 -1.1933 -0.48 -1.58 s-0.72 -0.71332 -1.2 -0.97998 s-0.99666 -0.50666 -1.55 -0.72 s-1.07 -0.48 -1.55 -0.8 s-0.88 -0.73 -1.2 -1.23 s-0.48 -1.1633 -0.48 -1.99 c0 -1.3333 0.34334 -2.3434 1.03 -3.03 s1.6967 -1.03 3.03 -1.03 c0.62666 0 1.17 0.1 1.63 0.3 s0.84334 0.48 1.15 0.84 s0.53332 0.78666 0.67998 1.28 s0.22 1.04 0.22 1.64 l0 1.26 l-1.46 0 c0 -0.44 -0.0033398 -0.89666 -0.01 -1.37 s-0.07666 -0.90668 -0.21 -1.3 s-0.35668 -0.71668 -0.67002 -0.97002 s-0.77 -0.38 -1.37 -0.38 c-0.86666 0 -1.52 0.22 -1.96 0.66 s-0.64666 1.0867 -0.62 1.94 l0 0.2 c0.01334 0.41334 0.08334 0.75668 0.21 1.03 s0.3 0.50668 0.52 0.70002 s0.47666 0.36334 0.77 0.51 s0.61334 0.3 0.96 0.46 c0.50666 0.22666 1 0.46666 1.48 0.72 s0.90334 0.55 1.27 0.89 s0.66332 0.74 0.88998 1.2 s0.34 1.01 0.34 1.65 z M229.9895 16.12 c0 1.2267 -0.3199 2.21 -0.9599 2.95 s-1.5933 1.11 -2.86 1.11 c-0.74666 0 -1.3767 -0.10666 -1.89 -0.32 s-0.93 -0.52 -1.25 -0.92 s-0.55 -0.88 -0.69 -1.44 s-0.20334 -1.1867 -0.19 -1.88 l0.02 -0.52 l1.54 0 c0 0.42666 0.01334 0.86332 0.04 1.31 s0.11332 0.85332 0.25998 1.22 s0.37332 0.66666 0.67998 0.9 s0.74666 0.35 1.32 0.35 c0.88 0 1.5267 -0.23334 1.94 -0.7 s0.62 -1.12 0.62 -1.96 c0 -0.66666 -0.16 -1.1933 -0.48 -1.58 s-0.72 -0.71332 -1.2 -0.97998 s-0.99666 -0.50666 -1.55 -0.72 s-1.07 -0.48 -1.55 -0.8 s-0.88 -0.73 -1.2 -1.23 s-0.48 -1.1633 -0.48 -1.99 c0 -1.3333 0.34334 -2.3434 1.03 -3.03 s1.6967 -1.03 3.03 -1.03 c0.62666 0 1.17 0.1 1.63 0.3 s0.84334 0.48 1.15 0.84 s0.53332 0.78666 0.67998 1.28 s0.22 1.04 0.22 1.64 l0 1.26 l-1.46 0 c0 -0.44 -0.0033398 -0.89666 -0.01 -1.37 s-0.07666 -0.90668 -0.21 -1.3 s-0.35668 -0.71668 -0.67002 -0.97002 s-0.77 -0.38 -1.37 -0.38 c-0.86666 0 -1.52 0.22 -1.96 0.66 s-0.64666 1.0867 -0.62 1.94 l0 0.2 c0.01334 0.41334 0.08334 0.75668 0.21 1.03 s0.3 0.50668 0.52 0.70002 s0.47666 0.36334 0.77 0.51 s0.61334 0.3 0.96 0.46 c0.50666 0.22666 1 0.46666 1.48 0.72 s0.90334 0.55 1.27 0.89 s0.66332 0.74 0.88998 1.2 s0.34 1.01 0.34 1.65 z M242.41 16.12 c0 1.4133 -0.31666 2.4434 -0.95 3.09 s-1.6633 0.97 -3.09 0.97 c-1.3067 0 -2.2634 -0.36 -2.87 -1.08 s-0.91 -1.7133 -0.91 -2.98 l0 -7.2 c0 -1.3733 0.32334 -2.3934 0.97 -3.06 s1.6633 -1 3.05 -1 c1.32 0 2.2834 0.35 2.89 1.05 s0.91 1.69 0.91 2.97 l0 7.24 z M241.01 16.08 l-0.000019531 -7.22 c0 -0.76 -0.2 -1.3933 -0.6 -1.9 s-1.0067 -0.76 -1.82 -0.76 c-0.97334 0 -1.65 0.25334 -2.03 0.76 s-0.57 1.22 -0.57 2.14 l0 6.9 c0 0.38666 0.04334 0.75 0.13 1.09 s0.22666 0.63666 0.42 0.89 s0.44 0.45334 0.74 0.6 s0.66334 0.22 1.09 0.22 c0.93334 0 1.6067 -0.22666 2.02 -0.68 s0.62 -1.1333 0.62 -2.04 z M256.3105 20 l-1.72 -0.000019531 l-3.14 -6.06 l-2.6 0 l0 6.06 l-1.34 0 l0 -15 l3.44 0 c1.3733 0 2.46 0.39334 3.26 1.18 s1.2 1.8667 1.2 3.24 c0 0.42666 -0.05666 0.86 -0.17 1.3 s-0.27668 0.85334 -0.49002 1.24 s-0.47668 0.73666 -0.79002 1.05 s-0.67 0.55668 -1.07 0.73002 z M253.9905 9.32 c0 -0.46666 -0.08 -0.88664 -0.24 -1.26 s-0.38 -0.69 -0.66 -0.95 s-0.61334 -0.46 -1 -0.6 s-0.80666 -0.21 -1.26 -0.21 l-1.98 0 l0 6.26 l2.1 0 c1.0667 0 1.84 -0.28666 2.32 -0.86 s0.72 -1.3667 0.72 -2.38 z M262.25100000000003 20 l-1.5 0 l0 -15 l1.5 0 l0 15 z M274.8315 20 l-7.5 0 l0 -15 l7.36 0 l0 1.52 l-5.98 0 l0 5.16 l5.94 0 l0 1.3 l-5.94 0 l0 5.5 l6.12 0 l0 1.52 z M286.512 16.12 c0 1.2267 -0.3199 2.21 -0.9599 2.95 s-1.5933 1.11 -2.86 1.11 c-0.74666 0 -1.3767 -0.10666 -1.89 -0.32 s-0.93 -0.52 -1.25 -0.92 s-0.55 -0.88 -0.69 -1.44 s-0.20334 -1.1867 -0.19 -1.88 l0.02 -0.52 l1.54 0 c0 0.42666 0.01334 0.86332 0.04 1.31 s0.11332 0.85332 0.25998 1.22 s0.37332 0.66666 0.67998 0.9 s0.74666 0.35 1.32 0.35 c0.88 0 1.5267 -0.23334 1.94 -0.7 s0.62 -1.12 0.62 -1.96 c0 -0.66666 -0.16 -1.1933 -0.48 -1.58 s-0.72 -0.71332 -1.2 -0.97998 s-0.99666 -0.50666 -1.55 -0.72 s-1.07 -0.48 -1.55 -0.8 s-0.88 -0.73 -1.2 -1.23 s-0.48 -1.1633 -0.48 -1.99 c0 -1.3333 0.34334 -2.3434 1.03 -3.03 s1.6967 -1.03 3.03 -1.03 c0.62666 0 1.17 0.1 1.63 0.3 s0.84334 0.48 1.15 0.84 s0.53332 0.78666 0.67998 1.28 s0.22 1.04 0.22 1.64 l0 1.26 l-1.46 0 c0 -0.44 -0.0033398 -0.89666 -0.01 -1.37 s-0.07666 -0.90668 -0.21 -1.3 s-0.35668 -0.71668 -0.67002 -0.97002 s-0.77 -0.38 -1.37 -0.38 c-0.86666 0 -1.52 0.22 -1.96 0.66 s-0.64666 1.0867 -0.62 1.94 l0 0.2 c0.01334 0.41334 0.08334 0.75668 0.21 1.03 s0.3 0.50668 0.52 0.70002 s0.47666 0.36334 0.77 0.51 s0.61334 0.3 0.96 0.46 c0.50666 0.22666 1 0.46666 1.48 0.72 s0.90334 0.55 1.27 0.89 s0.66332 0.74 0.88998 1.2 s0.34 1.01 0.34 1.65 z"/></g><g id="SvgjsG1085" featureKey="sloganFeature-1" transform="matrix(0.8428966519943442,0,0,0.8428966519943442,163.00000060288667,201.90354024536862)" fill="#000"><path d="M14.4 5 l-3.44 15 l-1.28 0 l-2.5 -12.24 l-2.48 12.24 l-1.26 0 l-3.44 -15 l1.44 0 l2.52 12 l2.76 -11.96 l-0.02 -0.04 l0.02 0 l0.96 0 l0.11 0.49 c0.07334 0.32666 0.17 0.75332 0.29 1.28 s0.25666 1.1333 0.41 1.82 s0.31334 1.39 0.48 2.11 s0.33 1.4333 0.49 2.14 s0.30666 1.35 0.44 1.93 s0.24668 1.07 0.34002 1.47 s0.15334 0.65334 0.18 0.76 l2.52 -12 l1.46 0 z M33.0605 5 l-3.44 15 l-1.28 0 l-2.5 -12.24 l-2.48 12.24 l-1.26 0 l-3.44 -15 l1.44 0 l2.52 12 l2.76 -11.96 l-0.02 -0.04 l0.02 0 l0.96 0 l0.11 0.49 c0.07334 0.32666 0.17 0.75332 0.29 1.28 s0.25666 1.1333 0.41 1.82 s0.31334 1.39 0.48 2.11 s0.33 1.4333 0.49 2.14 s0.30666 1.35 0.44 1.93 s0.24668 1.07 0.34002 1.47 s0.15334 0.65334 0.18 0.76 l2.52 -12 l1.46 0 z M51.721 5 l-3.44 15 l-1.28 0 l-2.5 -12.24 l-2.48 12.24 l-1.26 0 l-3.44 -15 l1.44 0 l2.52 12 l2.76 -11.96 l-0.02 -0.04 l0.02 0 l0.96 0 l0.11 0.49 c0.07334 0.32666 0.17 0.75332 0.29 1.28 s0.25666 1.1333 0.41 1.82 s0.31334 1.39 0.48 2.11 s0.33 1.4333 0.49 2.14 s0.30666 1.35 0.44 1.93 s0.24668 1.07 0.34002 1.47 s0.15334 0.65334 0.18 0.76 l2.52 -12 l1.46 0 z M57.9815 20 l-1.58 0 l0 -1.54 l1.58 0 l0 1.54 z M70.58200000000001 15.54 c0 1.4 -0.39336 2.4934 -1.18 3.28 s-1.88 1.18 -3.28 1.18 l-3.44 0 l0 -15 l2.98 0 c1.32 0 2.3366 0.32334 3.05 0.97 s1.07 1.6367 1.07 2.97 c0 0.56 -0.15334 1.0833 -0.46 1.57 s-0.67332 0.90332 -1.1 1.25 c0.68 0.44 1.2433 0.96666 1.69 1.58 s0.67 1.3467 0.67 2.2 z M68.462 8.94 c0 -0.73334 -0.2 -1.3434 -0.6 -1.83 s-0.98666 -0.73 -1.76 -0.73 l-2.04 0 l0 4.86 l2.24 0 c0.32 0 0.61 -0.06334 0.87 -0.19 s0.48666 -0.29332 0.68 -0.49998 s0.34334 -0.45 0.45 -0.73 s0.16 -0.57334 0.16 -0.88 z M69.242 15.620000000000001 c0 -0.96 -0.26664 -1.7033 -0.79998 -2.23 s-1.2733 -0.79 -2.22 -0.79 l-2.16 0 l0 5.98 l1.84 0 c0.46666 0 0.90332 -0.06 1.31 -0.18 s0.76 -0.3 1.06 -0.54 s0.53666 -0.54666 0.71 -0.92 s0.26 -0.81334 0.26 -1.32 z M82.6825 16.12 c0 1.4133 -0.31666 2.4434 -0.95 3.09 s-1.6633 0.97 -3.09 0.97 c-1.3067 0 -2.2634 -0.36 -2.87 -1.08 s-0.91 -1.7133 -0.91 -2.98 l0 -7.2 c0 -1.3733 0.32334 -2.3934 0.97 -3.06 s1.6633 -1 3.05 -1 c1.32 0 2.2834 0.35 2.89 1.05 s0.91 1.69 0.91 2.97 l0 7.24 z M81.2825 16.08 l-0.000019531 -7.22 c0 -0.76 -0.2 -1.3933 -0.6 -1.9 s-1.0067 -0.76 -1.82 -0.76 c-0.97334 0 -1.65 0.25334 -2.03 0.76 s-0.57 1.22 -0.57 2.14 l0 6.9 c0 0.38666 0.04334 0.75 0.13 1.09 s0.22666 0.63666 0.42 0.89 s0.44 0.45334 0.74 0.6 s0.66334 0.22 1.09 0.22 c0.93334 0 1.6067 -0.22666 2.02 -0.68 s0.62 -1.1333 0.62 -2.04 z M97.76299999999999 20 l-1.34 0 l0 -11.58 l-3.14 7.62 l-1.36 -0.02 l-3.06 -7.6 l0 11.58 l-1.34 0 l0 -15 l1.34 0 l3.76 9.18 l3.8 -9.18 l1.34 0 l0 15 z M110.54350000000001 15.54 c0 1.4 -0.39336 2.4934 -1.18 3.28 s-1.88 1.18 -3.28 1.18 l-3.44 0 l0 -15 l2.98 0 c1.32 0 2.3366 0.32334 3.05 0.97 s1.07 1.6367 1.07 2.97 c0 0.56 -0.15334 1.0833 -0.46 1.57 s-0.67332 0.90332 -1.1 1.25 c0.68 0.44 1.2433 0.96666 1.69 1.58 s0.67 1.3467 0.67 2.2 z M108.4235 8.94 c0 -0.73334 -0.2 -1.3434 -0.6 -1.83 s-0.98666 -0.73 -1.76 -0.73 l-2.04 0 l0 4.86 l2.24 0 c0.32 0 0.61 -0.06334 0.87 -0.19 s0.48666 -0.29332 0.68 -0.49998 s0.34334 -0.45 0.45 -0.73 s0.16 -0.57334 0.16 -0.88 z M109.2035 15.620000000000001 c0 -0.96 -0.26664 -1.7033 -0.79998 -2.23 s-1.2733 -0.79 -2.22 -0.79 l-2.16 0 l0 5.98 l1.84 0 c0.46666 0 0.90332 -0.06 1.31 -0.18 s0.76 -0.3 1.06 -0.54 s0.53666 -0.54666 0.71 -0.92 s0.26 -0.81334 0.26 -1.32 z M123.444 20 l-1.4 0 l-1.06 -4.3 l-4.36 0 l-1.06 4.3 l-1.36 0 l4.06 -15 l1.14 0 z M120.644 14.36 l-1.78 -7.42 l-1.9 7.42 l3.68 0 z M135.2445 16.12 c0 1.2267 -0.3199 2.21 -0.9599 2.95 s-1.5933 1.11 -2.86 1.11 c-0.74666 0 -1.3767 -0.10666 -1.89 -0.32 s-0.93 -0.52 -1.25 -0.92 s-0.55 -0.88 -0.69 -1.44 s-0.20334 -1.1867 -0.19 -1.88 l0.02 -0.52 l1.54 0 c0 0.42666 0.01334 0.86332 0.04 1.31 s0.11332 0.85332 0.25998 1.22 s0.37332 0.66666 0.67998 0.9 s0.74666 0.35 1.32 0.35 c0.88 0 1.5267 -0.23334 1.94 -0.7 s0.62 -1.12 0.62 -1.96 c0 -0.66666 -0.16 -1.1933 -0.48 -1.58 s-0.72 -0.71332 -1.2 -0.97998 s-0.99666 -0.50666 -1.55 -0.72 s-1.07 -0.48 -1.55 -0.8 s-0.88 -0.73 -1.2 -1.23 s-0.48 -1.1633 -0.48 -1.99 c0 -1.3333 0.34334 -2.3434 1.03 -3.03 s1.6967 -1.03 3.03 -1.03 c0.62666 0 1.17 0.1 1.63 0.3 s0.84334 0.48 1.15 0.84 s0.53332 0.78666 0.67998 1.28 s0.22 1.04 0.22 1.64 l0 1.26 l-1.46 0 c0 -0.44 -0.0033398 -0.89666 -0.01 -1.37 s-0.07666 -0.90668 -0.21 -1.3 s-0.35668 -0.71668 -0.67002 -0.97002 s-0.77 -0.38 -1.37 -0.38 c-0.86666 0 -1.52 0.22 -1.96 0.66 s-0.64666 1.0867 -0.62 1.94 l0 0.2 c0.01334 0.41334 0.08334 0.75668 0.21 1.03 s0.3 0.50668 0.52 0.70002 s0.47666 0.36334 0.77 0.51 s0.61334 0.3 0.96 0.46 c0.50666 0.22666 1 0.46666 1.48 0.72 s0.90334 0.55 1.27 0.89 s0.66332 0.74 0.88998 1.2 s0.34 1.01 0.34 1.65 z M146.56500000000003 6.460000000000001 l-3.1 0 l0 13.54 l-1.48 0 l0 -13.54 l-3.1 0 l0 -1.46 l7.68 0 l0 1.46 z M152.7255 20 l-1.5 0 l0 -15 l1.5 0 l0 15 z M165.626 20 l-1.52 0 l-3.26 -7.7 l-1.7 2.62 l0 5.08 l-1.34 0 l0 -15 l1.34 0 l0 7.2 l4.52 -7.2 l1.62 0 l-3.46 6.14 z M171.72650000000002 20 l-1.58 0 l0 -1.54 l1.58 0 l0 1.54 z M183.667 14.8 c-0.01334 0.74666 -0.040038 1.4466 -0.080038 2.1 s-0.17666 1.2233 -0.41 1.71 s-0.60334 0.87 -1.11 1.15 s-1.2267 0.42 -2.16 0.42 c-0.65334 0 -1.2067 -0.09666 -1.66 -0.29 s-0.82 -0.46668 -1.1 -0.82002 s-0.48334 -0.78 -0.61 -1.28 s-0.19 -1.0567 -0.19 -1.67 l0 -7.2 c0 -0.65334 0.06666 -1.2333 0.2 -1.74 s0.35 -0.93332 0.65 -1.28 s0.69 -0.60666 1.17 -0.78 s1.0667 -0.26 1.76 -0.26 c0.84 0 1.4933 0.14334 1.96 0.43 s0.81666 0.67 1.05 1.15 s0.37668 1.03 0.43002 1.65 s0.08668 1.2633 0.10002 1.93 l-1.32 0 c0 -0.44 -0.0033398 -0.89334 -0.01 -1.36 s-0.07332 -0.89 -0.19998 -1.27 s-0.34666 -0.69334 -0.66 -0.94 s-0.77668 -0.37 -1.39 -0.37 c-0.46666 0 -0.85666 0.06666 -1.17 0.2 s-0.56 0.32668 -0.74 0.58002 s-0.30666 0.55334 -0.38 0.9 s-0.11 0.73332 -0.11 1.16 l0.04 7.3 c0 0.4 0.03 0.76334 0.09 1.09 s0.17 0.60666 0.33 0.84 s0.38334 0.41334 0.67 0.54 s0.65 0.19 1.09 0.19 c0.68 0 1.1867 -0.11666 1.52 -0.35 s0.56668 -0.54334 0.70002 -0.93 s0.20334 -0.82332 0.21 -1.31 s0.01 -0.98332 0.01 -1.49 l1.32 0 z M196.42749999999998 16.12 c0 1.4133 -0.31666 2.4434 -0.95 3.09 s-1.6633 0.97 -3.09 0.97 c-1.3067 0 -2.2634 -0.36 -2.87 -1.08 s-0.91 -1.7133 -0.91 -2.98 l0 -7.2 c0 -1.3733 0.32334 -2.3934 0.97 -3.06 s1.6633 -1 3.05 -1 c1.32 0 2.2834 0.35 2.89 1.05 s0.91 1.69 0.91 2.97 l0 7.24 z M195.02749999999997 16.08 l-0.000019531 -7.22 c0 -0.76 -0.2 -1.3933 -0.6 -1.9 s-1.0067 -0.76 -1.82 -0.76 c-0.97334 0 -1.65 0.25334 -2.03 0.76 s-0.57 1.22 -0.57 2.14 l0 6.9 c0 0.38666 0.04334 0.75 0.13 1.09 s0.22666 0.63666 0.42 0.89 s0.44 0.45334 0.74 0.6 s0.66334 0.22 1.09 0.22 c0.93334 0 1.6067 -0.22666 2.02 -0.68 s0.62 -1.1333 0.62 -2.04 z M203.348 20 l-1.58 0 l0 -1.54 l1.58 0 l0 1.54 z M215.8485 20 l-7.8 0 l0 -1.98 l6.46 -11.54 l-6.46 0 l0 -1.48 l7.8 0 l0 1.98 l-6.42 11.54 l6.42 0 l0 1.48 z M229.28900000000002 20 l-1.4 0 l-1.06 -4.3 l-4.36 0 l-1.06 4.3 l-1.36 0 l4.06 -15 l1.14 0 z M226.489 14.36 l-1.78 -7.42 l-1.9 7.42 l3.68 0 z"/></g>
			</g>
		</svg>
	